<?xml version="1.0" encoding="utf-8"?>
<svg xmlns="http://www.w3.org/2000/svg"
     width="35px" height="35px" viewBox="0 0 50 50"
     fill="#000000">
  <path style="line-height:normal;text-indent:0;text-align:start;text-decoration-line:none;text-decoration-style:solid;text-decoration-color:#000;text-transform:none;block-progression:tb;isolation:auto;mix-blend-mode:normal"
        d="M 25 2 C 24.115223 2 23.258045 2.0586739 22.425781 2.1523438 L 22.873047 6.1269531 C 23.586783 6.0466231 24.292777 6 25 6 C 35.517124 6 44 14.482876 44 25 C 44 35.517124 35.517124 44 25 44 C 24.296653 44 23.594813 43.95359 22.884766 43.875 L 22.443359 47.851562 C 23.269312 47.942977 24.121347 48 25 48 C 37.678876 48 48 37.678876 48 25 C 48 12.321124 37.678876 2 25 2 z M 17.40625 3.3066406 C 15.768141 3.8804166 14.215682 4.6325511 12.769531 5.5429688 L 14.900391 8.9277344 C 16.09424 8.176152 17.374624 7.5562554 18.728516 7.0820312 L 17.40625 3.3066406 z M 8.734375 8.7382812 C 7.5072051 9.9654513 6.4488687 11.330532 5.5390625 12.775391 L 8.9238281 14.90625 C 9.6940219 13.683109 10.57167 12.557236 11.5625 11.566406 L 8.734375 8.7382812 z M 33.335938 13.890625 L 22.611328 29.978516 L 15.328125 23.505859 L 12.671875 26.494141 L 23.388672 36.021484 L 36.664062 16.109375 L 33.335938 13.890625 z M 3.3046875 17.414062 C 2.7471858 19.005992 2.3453333 20.684367 2.1503906 22.435547 L 6.125 22.876953 C 6.2840574 21.448133 6.6135798 20.068399 7.0800781 18.736328 L 3.3046875 17.414062 z M 6.1289062 27.134766 L 2.1542969 27.580078 C 2.350351 29.331348 2.7534077 31.008716 3.3105469 32.599609 L 7.0859375 31.277344 C 6.6190767 29.944237 6.2888521 28.563496 6.1289062 27.134766 z M 8.9316406 35.103516 L 5.5488281 37.238281 C 6.460153 38.683831 7.5187755 40.045272 8.7460938 41.271484 L 11.572266 38.441406 C 10.579584 37.449619 9.7023158 36.325966 8.9316406 35.103516 z M 14.912109 41.078125 L 12.783203 44.464844 C 14.229438 45.374219 15.782533 46.124536 17.421875 46.697266 L 18.742188 42.921875 C 17.387528 42.448604 16.105874 41.82875 14.912109 41.078125 z"
        font-weight="400"
        font-family="sans-serif"
        white-space="normal"
        overflow="visible"
        fill="#0066cc"/>
</svg>
